<?xml version="1.0" encoding="UTF-8" standalone="no"?>
<svg width="100px" height="100px" viewBox="0 0 100 100" version="1.1" xmlns="http://www.w3.org/2000/svg" xmlns:xlink="http://www.w3.org/1999/xlink" xmlns:sketch="http://www.bohemiancoding.com/sketch/ns">
    <!-- Generator: Sketch 3.1.1 (8761) - http://www.bohemiancoding.com/sketch -->
    <title>business-logic</title>
    <desc>Created with Sketch.</desc>
    <defs></defs>
    <g id="Page-1" stroke="none" stroke-width="1" fill="none" fill-rule="evenodd" sketch:type="MSPage">
        <circle id="Oval-1" fill="#8B572A" sketch:type="MSShapeGroup" cx="50" cy="50" r="50"></circle>
        <path d="M31,26 C31,25 32,24 33,24 C35,24 63,24 68,24 C69,24 70,24.97 70,26 L70,33 L81,33 C82,33 82.9700012,34 82.9615982,34.8477201 C82.9531952,35.6954401 82.9700012,50 82.9700012,51 C82,51 19.9999999,51.0000004 19,51.0000004 C19,50.0000004 19.06,41.0000004 19,36.0000004 C19.06,34.0000004 20,33.0000004 22,33.0000004 C24,33.0000004 27.96,33.0100004 31,33.0000004 C30.98,30.3600004 31,26 31,26 Z" id="Shape" fill="#FFFCF6" sketch:type="MSShapeGroup"></path>
        <path d="M67,27 L67,33 L34,33 L34,27 L67,27 Z" id="Shape" fill="#8B572A" sketch:type="MSShapeGroup"></path>
        <path d="M82.9300037,56 L82.9300037,73 C82.9300037,74 81.9300037,74.9699993 80.9999996,74.9699993 C79.9999996,74.9699993 40.3200001,74.9599993 21.0000001,74.9699993 C20,74.9599991 19,74 19,73 C19,72 19,56 19,56 L82.9300037,56 Z" id="Shape" fill="#FFFCF6" sketch:type="MSShapeGroup"></path>
        <path d="M58.9999995,47 C59.0200104,47.009997 58.9799903,49.7503766 58.9999995,51.0000001 L83.0000034,51.0000001 L83,51.8326018 C79.7874483,51.8326018 65.1628556,51.8226048 58.9999995,51.8326018 C58.9999995,51.8326018 59.0100042,58.6304124 58.9999995,59.9999997 C53.4674356,60.0099967 48.4840024,60.0099967 42.9514384,59.9999997 L42.9514384,51.8326018 C35.037771,51.662653 20,51.8326016 19,51.8326016 C19,51.0000001 19,51.0000001 19,51.0000001 C21.0000001,51.0000001 36.9767678,51.0072808 42.9514384,51.0000002 C42.9514385,50.0000001 42.9314292,48.2496235 42.9514384,47 C48.4739978,46.990003 58.9799886,46.990003 58.9999995,47 Z" id="Shape" fill="#5F7C7D" sketch:type="MSShapeGroup"></path>
        <path d="M45.97,50 L55.9999997,50 L55.9999997,57 L45.97,57 L45.97,49.79 L45.97,50 Z" id="Shape" fill="#FFFCF6" sketch:type="MSShapeGroup"></path>
    </g>
</svg>